<?xml version="1.0" encoding="utf-8"?>
<!-- Svg Vector Icons : http://www.onlinewebfonts.com/icon -->
<!DOCTYPE svg PUBLIC "-//W3C//DTD SVG 1.1//EN" "http://www.w3.org/Graphics/SVG/1.1/DTD/svg11.dtd">
<svg version="1.1" xmlns="http://www.w3.org/2000/svg" xmlns:xlink="http://www.w3.org/1999/xlink" x="0px" y="0px" viewBox="0 0 1000 1000" enable-background="new 0 0 1000 1000" xml:space="preserve">
<metadata> Svg Vector Icons : http://www.onlinewebfonts.com/icon </metadata>
<g><g transform="translate(0.000000,511.000000) scale(0.100000,-0.100000)"><path d="M4389.1,4974.9c-246.6-79-442.9-253.8-555.4-490.8c-59.8-131.7-62.3-148.4-69.4-677.5c-7.2-483.6-12-543.4-47.9-553c-26.3-4.8-167.6,114.9-399.8,342.3c-383,373.5-471.6,430.9-720.6,476.4c-174.8,31.1-368.7,4.8-555.4-81.4c-105.3-47.9-213.1-141.2-497.9-426.1c-452.5-454.9-497.9-536.3-500.4-878.6c0-347.1,43.1-423.7,509.9-890.6c234.6-239.4,366.3-385.4,351.9-399.8c-14.4-14.4-277.7-26.3-586.5-31.1l-562.6-7.2l-150.8-81.4c-258.5-141.3-433.3-380.6-486-667.9c-14.4-74.2-21.6-342.3-16.8-600.9c7.2-469.2,7.2-469.2,81.4-627.2c105.3-222.6,222.6-340,435.7-447.7l182-88.6l557.8-7.2c306.4-4.8,557.8-14.4,557.8-23.9c0-7.2-165.2-181.9-368.7-385.4c-469.2-478.8-505.1-538.6-505.1-888.2c0-363.9,31.1-418.9,519.5-900.1c462-454.9,533.9-498,881-498c344.7,0,421.4,43.1,864.2,481.2c263.3,258.5,385.4,363.9,411.7,351.9c33.5-12,38.3-86.2,45.5-555.4c7.2-529.1,9.6-545.8,69.4-677.5c86.2-179.6,205.9-311.2,373.5-399.8c208.3-110.1,366.3-131.7,909.7-122.1l476.4,9.6l181.9,91c220.3,107.7,378.2,270.5,447.7,462c45.5,117.3,50.3,184.3,50.3,632v502.7l62.2,14.4c55.1,14.4,98.2-21.6,402.2-320.8c428.5-428.5,509.9-471.6,864.2-471.6c349.5,0,414.1,38.3,871.4,502.7c445.3,452.5,517.1,574.6,514.7,885.8c0,311.2-50.3,407-433.3,816.4c-316,339.9-323.2,347.1-294.5,416.5l28.7,67l469.2,9.6c469.2,7.2,471.6,7.2,627.2,81.4c86.2,40.7,203.5,122.1,260.9,179.5c57.4,57.4,138.8,174.8,179.6,260.9l74.2,155.6v586.5v586.5l-74.2,158c-98.2,205.9-213.1,330.4-397.4,430.9l-150.8,81.4l-497.9,7.2l-495.5,7.2l-38.3,74.2l-38.3,71.8l323.2,328c404.6,407,433.3,462,435.7,816.3c0,237-4.8,261-79,411.8c-62.3,129.3-138.8,217.9-435.7,505.1c-380.7,371.1-497.9,447.7-746.9,498c-162.8,33.5-347.1,4.8-519.5-79c-69.4-31.1-241.8-179.6-457.2-392.6c-471.6-459.6-450.1-471.6-459.6,234.6c-7.2,490.8-12,543.4-59.8,648.8c-79,167.6-270.5,356.7-445.3,438.1l-148.4,69.4l-562.6,4.8C4635.7,5006,4463.3,4998.8,4389.1,4974.9z M5509.5,4268.7l69.4-69.4v-591.3c0-627.2,4.8-663.1,124.5-768.5c28.7-28.7,114.9-71.8,186.7-93.4c71.8-23.9,217.9-83.8,320.8-136.5c210.7-100.5,289.7-110.1,404.6-52.6c43.1,21.5,249,208.3,459.6,416.5c380.7,373.5,450.1,430.9,529.1,430.9c43.1,0,615.3-548.2,660.7-634.4c69.4-124.5,40.7-170-359.1-572.1c-210.7-213.1-395-411.8-411.8-440.5c-47.9-98.1-33.5-251.4,43.1-402.2c38.3-79,98.2-217.9,134.1-313.6c136.4-359.1,153.2-366.3,885.8-366.3h562.6l50.3-64.6c47.9-62.2,50.3-86.2,43.1-529.1c-7.2-426.1-12-466.8-52.7-497.9c-38.3-26.3-158-33.5-574.6-33.5c-555.4,0-670.3-16.8-766.1-102.9c-50.3-43.1-256.1-478.8-354.3-742.1c-57.4-155.6-16.8-217.8,414.1-653.6c399.8-404.6,404.6-409.4,404.6-514.7c0-102.9-7.2-112.5-296.9-402.2c-296.8-294.5-299.2-296.9-409.4-296.9h-110.1L7056-2752.9c-512.3,512.3-538.7,521.9-866.6,356.7c-79-38.3-213.1-98.1-299.3-129.3c-306.4-114.9-311.2-129.3-311.2-881c0-555.4-2.4-588.9-47.9-634.4c-45.5-45.5-79-47.9-521.9-47.9c-452.5,0-478.8,2.4-521.9,50.3c-40.7,45.5-45.5,105.3-57.5,703.8c-12,689.5-12,689.5-131.7,778c-26.3,19.2-122.1,64.6-215.5,98.2c-91,33.5-222.6,91-292.1,124.5c-146,76.6-301.6,83.8-390.2,21.6c-33.5-21.6-246.6-227.4-469.2-457.2l-409.4-416.6l-93.3,14.4c-79,14.4-136.5,59.9-397.4,323.2c-256.1,256.2-306.4,318.4-306.4,378.3c0,62.2,57.5,129.3,373.5,442.9c509.9,505.1,565,572.1,576.9,711c9.6,100.5-4.8,146-153.2,435.7c-225,442.9-165.2,416.6-964.8,426.1c-608.1,7.2-636.8,9.6-689.5,57.5c-50.3,50.3-52.7,64.6-52.7,512.3v462l62.3,47.9c59.9,47.9,93.4,50.3,675.1,50.3c806.8,0,763.7-19.2,976.8,421.3c160.4,335.2,181.9,435.7,119.7,555.4c-19.2,35.9-225,253.8-457.3,483.6c-232.2,229.8-438.1,450.1-457.2,486c-33.5,62.3-31.1,74.2,7.2,134.1c86.2,129.3,651.2,648.8,706.2,648.8c35.9,0,189.1-136.5,495.6-440.5c244.2-244.2,476.4-454.9,512.3-466.8c38.3-14.4,103-26.3,143.6-23.9c112.5,0,711,287.3,770.9,366.3c45.5,62.2,47.9,110.1,59.9,725.4l12,658.3l67,57.5c64.6,55.1,76.6,57.4,498,57.4H5440L5509.5,4268.7z"/><path d="M4671.6,1690.3c-328-69.4-691.9-296.9-897.7-560.2C3532,821.3,3417.1,491,3417.1,100.7c2.4-892.9,708.6-1604,1587.2-1604c277.7,0,483.6,47.9,708.6,158c711,349.5,1074.9,1170.6,847.4,1912.8c-81.4,265.8-201.1,457.3-428.5,684.7c-167.6,170-244.2,225-409.4,304C5373,1721.5,5021.1,1767,4671.6,1690.3z M5174.3,1010.5c481.2-91,823.5-569.8,742.1-1039c-55.1-311.2-241.8-560.2-524.3-691.9c-146-69.4-181.9-76.6-387.8-76.6c-196.3,0-246.6,9.6-363.9,64.6c-191.5,88.6-363.9,256.2-457.2,447.7c-71.8,146-76.6,174.8-76.6,397.4c0,215.5,7.2,253.8,69.4,383c124.5,251.4,354.3,438.1,624.8,505.1C4954.1,1039.2,5016.3,1039.2,5174.3,1010.5z"/></g></g>
</svg>